<svg width="14" height="14" viewBox="0 0 14 14" fill="none" xmlns="http://www.w3.org/2000/svg">
<path fill-rule="evenodd" clip-rule="evenodd" d="M2.21911 2.21914C4.86177 -0.423512 9.14783 -0.423512 11.7905 2.21914C14.4331 4.8618 14.4331 9.14786 11.7905 11.7905C9.14783 14.4332 4.86177 14.4332 2.21911 11.7905C-0.423543 9.14786 -0.423543 4.8618 2.21911 2.21914ZM3.01867 3.0187C5.21966 0.817716 8.78973 0.817716 10.9909 3.0187C13.192 5.21969 13.1919 8.78976 10.9909 10.9909C8.78989 13.192 5.21982 13.1919 3.01867 10.9909C0.817531 8.78992 0.817686 5.21985 3.01867 3.0187Z" fill="#0A0A0B"/>
<path fill-rule="evenodd" clip-rule="evenodd" d="M2.5282 7.18379C3.14935 5.48513 4.40012 5.7722 4.16126 4.08496C4.04665 5.65312 2.98946 5.1529 2.5282 7.18379Z" fill="#0A0A0B"/>
<path fill-rule="evenodd" clip-rule="evenodd" d="M2.6236 7.14522C3.31708 6.0187 4.01518 6.29222 4.18926 5.12091C3.82494 6.18895 3.28342 5.78125 2.6236 7.14522Z" fill="#0A0A0B"/>
<path fill-rule="evenodd" clip-rule="evenodd" d="M2.45129 7.04261C2.7197 5.6894 3.57388 5.66489 3.27263 4.48062C3.32918 5.64409 2.58547 5.47726 2.45129 7.04261Z" fill="#0A0A0B"/>
<path fill-rule="evenodd" clip-rule="evenodd" d="M11.4009 6.26656C8.54892 7.24339 5.69643 8.22043 2.84446 9.19747C2.66827 9.25784 2.45784 9.11199 2.37597 8.87303L2.12003 8.1259C2.03817 7.88704 2.11511 7.64276 2.2913 7.58249C5.14327 6.60565 7.99575 5.62861 10.8477 4.65157C11.1222 4.55755 11.4131 4.67578 11.4949 4.91473L11.7508 5.66186C11.8326 5.90072 11.6754 6.17252 11.4009 6.26656H11.4009ZM9.44881 6.81399C9.48809 6.71153 9.4903 6.58065 9.446 6.45129L9.19006 5.70416C9.14576 5.57479 9.0636 5.47283 8.96978 5.41598L2.82947 7.51923C2.92329 7.57608 3.00535 7.67803 3.04965 7.80741L3.30559 8.55454C3.34988 8.68391 3.34757 8.81479 3.3083 8.91724L9.44887 6.81399H9.44881Z" fill="#0A0A0B"/>
</svg>
