<svg width="18" height="16" viewBox="0 0 18 16" fill="none" xmlns="http://www.w3.org/2000/svg">
<path d="M18 2.45001C17.325 2.75001 16.65 2.97501 15.9 3.05001C16.65 2.60001 17.25 1.85001 17.55 1.02501C16.8 1.47501 16.05 1.77501 15.225 1.92501C14.55 1.17501 13.575 0.725006 12.525 0.725006C10.5 0.725006 8.85 2.37501 8.85 4.40001C8.85 4.70001 8.85 5.00001 8.925 5.22501C5.775 5.07501 3.075 3.57501 1.275 1.32501C0.9 1.92501 0.75 2.52501 0.75 3.20001C0.75 4.47501 1.425 5.60001 2.4 6.27501C1.8 6.27501 1.2 6.12501 0.75 5.82501C0.75 5.82501 0.75 5.82501 0.75 5.90001C0.75 7.70001 2.025 9.20001 3.675 9.50001C3.375 9.57501 3.075 9.65001 2.7 9.65001C2.475 9.65001 2.25 9.65001 2.025 9.57501C2.475 11.075 3.825 12.125 5.475 12.125C4.2 13.1 2.625 13.7 0.9 13.7C0.6 13.7 0.3 13.7 0 13.625C1.65 14.675 3.6 15.275 5.625 15.275C12.45 15.275 16.125 9.65001 16.125 4.77501C16.125 4.62501 16.125 4.47501 16.125 4.32501C16.875 3.80001 17.475 3.12501 18 2.45001Z" fill="#6F767E"/>
</svg>
