<svg width="12" height="12" viewBox="0 0 12 12" fill="none" xmlns="http://www.w3.org/2000/svg">
<path d="M4.77306 9.31527C4.44189 9.31527 4.1731 9.04648 4.1731 8.7153V3.30193C4.1731 2.97076 4.44189 2.70197 4.77306 2.70197H6.48908C7.70529 2.70197 8.69529 3.69137 8.69529 4.90817C8.69529 6.12497 7.70588 7.11377 6.48908 7.11377H5.37313V8.71458C5.37303 9.04635 5.10483 9.31514 4.77306 9.31514V9.31527ZM5.37303 5.91378H6.48898C7.04394 5.91378 7.49515 5.46257 7.49515 4.90823C7.49515 4.35326 7.04394 3.90205 6.48898 3.90205H5.37303V5.91378Z" fill="black"/>
<path d="M6.00837 12.0086C4.50298 12.0086 3.05997 11.4434 1.94654 10.4162C1.70296 10.1912 1.68739 9.81201 1.91179 9.56842C2.13619 9.32483 2.51538 9.30865 2.75956 9.53366C3.65172 10.3562 4.80544 10.8086 6.00856 10.8086C8.65508 10.8086 10.8086 8.65526 10.8086 6.00854C10.8086 3.36203 8.65528 1.20846 6.00856 1.20846C3.36205 1.20846 1.20848 3.36182 1.20848 6.00854C1.20848 6.72132 1.36688 7.41378 1.67828 8.06769C1.82051 8.36713 1.69385 8.72531 1.39511 8.86746C1.09567 9.00969 0.738085 8.88302 0.595345 8.58429C0.205902 7.76776 0.00854492 6.90132 0.00854492 6.00849C0.00854492 2.70009 2.70006 0.00857544 6.00846 0.00857544C9.31686 0.00857544 12.0084 2.70009 12.0084 6.00849C12.0084 9.31689 9.31686 12.0084 6.00846 12.0084L6.00837 12.0086Z" fill="black"/>
</svg>
